<svg data-v-423bf9ae="" xmlns="http://www.w3.org/2000/svg" viewBox="0 0 330 90" class="iconLeft"><!----><!----><!----><g data-v-423bf9ae="" id="3a55a200-242f-4ff7-8afe-33d8357bacef" fill="#FFFFFF" transform="matrix(4.464285536890945,0,0,4.464285536890945,106.17108179965884,2.812499922301072)"><path d="M1.30 13.09L1.30 13.09Q1.16 13.09 1.06 12.98L1.06 12.98L1.06 12.98Q0.95 12.88 0.95 12.74L0.95 12.74L0.95 3.65L0.95 3.65Q0.95 3.50 1.05 3.39L1.05 3.39L1.05 3.39Q1.15 3.29 1.30 3.29L1.30 3.29L5.63 3.29L5.63 3.29Q7.41 3.29 8.27 4.02L8.27 4.02L8.27 4.02Q9.14 4.75 9.14 6.09L9.14 6.09L9.14 6.09Q9.14 6.76 8.79 7.25L8.79 7.25L8.79 7.25Q8.43 7.74 7.99 7.97L7.99 7.97L7.99 7.97Q8.57 8.22 8.96 8.80L8.96 8.80L8.96 8.80Q9.35 9.38 9.35 10.11L9.35 10.11L9.35 10.11Q9.35 11.52 8.42 12.31L8.42 12.31L8.42 12.31Q7.49 13.09 5.75 13.09L5.75 13.09L1.30 13.09ZM3.58 7.17L5.33 7.17L5.33 7.17Q5.85 7.17 6.13 6.89L6.13 6.89L6.13 6.89Q6.41 6.61 6.41 6.16L6.41 6.16L6.41 6.16Q6.41 5.73 6.14 5.45L6.14 5.45L6.14 5.45Q5.87 5.18 5.33 5.18L5.33 5.18L3.58 5.18L3.58 7.17ZM3.58 11.20L5.46 11.20L5.46 11.20Q6.01 11.20 6.31 10.88L6.31 10.88L6.31 10.88Q6.61 10.57 6.61 10.11L6.61 10.11L6.61 10.11Q6.61 9.63 6.30 9.32L6.30 9.32L6.30 9.32Q5.99 9.00 5.46 9.00L5.46 9.00L3.58 9.00L3.58 11.20ZM11.06 13.09L11.06 13.09Q10.91 13.09 10.80 12.99L10.80 12.99L10.80 12.99Q10.70 12.89 10.70 12.74L10.70 12.74L10.70 3.50L10.70 3.50Q10.70 3.35 10.80 3.25L10.80 3.25L10.80 3.25Q10.91 3.15 11.06 3.15L11.06 3.15L12.81 3.15L12.81 3.15Q12.96 3.15 13.06 3.25L13.06 3.25L13.06 3.25Q13.16 3.35 13.16 3.50L13.16 3.50L13.16 12.74L13.16 12.74Q13.16 12.88 13.06 12.98L13.06 12.98L13.06 12.98Q12.96 13.09 12.81 13.09L12.81 13.09L11.06 13.09ZM18.26 13.23L18.26 13.23Q16.49 13.23 15.55 12.41L15.55 12.41L15.55 12.41Q14.60 11.59 14.52 10.08L14.52 10.08L14.52 10.08Q14.50 9.90 14.50 9.45L14.50 9.45L14.50 9.45Q14.50 9.00 14.52 8.82L14.52 8.82L14.52 8.82Q14.60 7.34 15.57 6.50L15.57 6.50L15.57 6.50Q16.55 5.67 18.26 5.67L18.26 5.67L18.26 5.67Q19.96 5.67 20.94 6.50L20.94 6.50L20.94 6.50Q21.91 7.34 21.99 8.82L21.99 8.82L21.99 8.82Q22.02 9.18 22.02 9.45L22.02 9.45L22.02 9.45Q22.02 9.72 21.99 10.08L21.99 10.08L21.99 10.08Q21.91 11.59 20.96 12.41L20.96 12.41L20.96 12.41Q20.02 13.23 18.26 13.23L18.26 13.23ZM18.26 11.47L18.26 11.47Q18.83 11.47 19.11 11.11L19.11 11.11L19.11 11.11Q19.39 10.75 19.43 10.01L19.43 10.01L19.43 10.01Q19.45 9.87 19.45 9.45L19.45 9.45L19.45 9.45Q19.45 9.03 19.43 8.89L19.43 8.89L19.43 8.89Q19.39 8.16 19.11 7.80L19.11 7.80L19.11 7.80Q18.83 7.43 18.26 7.43L18.26 7.43L18.26 7.43Q17.68 7.43 17.40 7.80L17.40 7.80L17.40 7.80Q17.12 8.16 17.08 8.89L17.08 8.89L17.07 9.45L17.08 10.01L17.08 10.01Q17.12 10.75 17.40 11.11L17.40 11.11L17.40 11.11Q17.68 11.47 18.26 11.47L18.26 11.47ZM26.99 16.17L26.99 16.17Q25.65 16.17 24.81 15.74L24.81 15.74L24.81 15.74Q23.97 15.30 23.60 14.73L23.60 14.73L23.60 14.73Q23.24 14.17 23.24 13.79L23.24 13.79L23.24 13.79Q23.24 13.65 23.35 13.55L23.35 13.55L23.35 13.55Q23.46 13.45 23.60 13.45L23.60 13.45L25.48 13.45L25.48 13.45Q25.62 13.45 25.70 13.52L25.70 13.52L25.70 13.52Q25.79 13.58 25.86 13.73L25.86 13.73L25.86 13.73Q26.00 14.04 26.22 14.22L26.22 14.22L26.22 14.22Q26.45 14.39 26.92 14.39L26.92 14.39L26.92 14.39Q27.52 14.39 27.82 14.09L27.82 14.09L27.82 14.09Q28.11 13.79 28.11 13.09L28.11 13.09L28.11 12.15L28.11 12.15Q27.37 12.92 26.08 12.92L26.08 12.92L26.08 12.92Q24.67 12.92 23.92 12.10L23.92 12.10L23.92 12.10Q23.17 11.28 23.10 9.69L23.10 9.69L23.09 9.31L23.09 9.31Q23.09 7.60 23.85 6.64L23.85 6.64L23.85 6.64Q24.61 5.67 26.08 5.67L26.08 5.67L26.08 5.67Q26.80 5.67 27.34 5.94L27.34 5.94L27.34 5.94Q27.89 6.22 28.25 6.68L28.25 6.68L28.25 6.17L28.25 6.17Q28.25 6.02 28.35 5.92L28.35 5.92L28.35 5.92Q28.45 5.81 28.60 5.81L28.60 5.81L30.31 5.81L30.31 5.81Q30.46 5.81 30.57 5.92L30.57 5.92L30.57 5.92Q30.67 6.02 30.67 6.17L30.67 6.17L30.67 12.88L30.67 12.88Q30.67 14.49 29.71 15.33L29.71 15.33L29.71 15.33Q28.74 16.17 26.99 16.17L26.99 16.17ZM26.88 11.03L26.88 11.03Q27.48 11.03 27.78 10.67L27.78 10.67L27.78 10.67Q28.07 10.30 28.11 9.74L28.11 9.74L28.11 9.74Q28.13 9.65 28.13 9.32L28.13 9.32L28.13 9.32Q28.13 8.99 28.11 8.90L28.11 8.90L28.11 8.90Q28.07 8.33 27.78 7.97L27.78 7.97L27.78 7.97Q27.48 7.62 26.88 7.62L26.88 7.62L26.88 7.62Q26.26 7.62 25.98 7.99L25.98 7.99L25.98 7.99Q25.70 8.36 25.68 9.02L25.68 9.02L25.66 9.32L25.66 9.32Q25.66 10.12 25.93 10.58L25.93 10.58L25.93 10.58Q26.19 11.03 26.88 11.03L26.88 11.03ZM32.63 4.80L32.63 4.80Q32.48 4.80 32.38 4.70L32.38 4.70L32.38 4.70Q32.28 4.59 32.28 4.44L32.28 4.44L32.28 3.14L32.28 3.14Q32.28 2.98 32.39 2.88L32.39 2.88L32.39 2.88Q32.49 2.77 32.63 2.77L32.63 2.77L34.38 2.77L34.38 2.77Q34.54 2.77 34.64 2.88L34.64 2.88L34.64 2.88Q34.75 2.98 34.75 3.14L34.75 3.14L34.75 4.44L34.75 4.44Q34.75 4.59 34.64 4.70L34.64 4.70L34.64 4.70Q34.54 4.80 34.38 4.80L34.38 4.80L32.63 4.80ZM32.63 13.09L32.63 13.09Q32.49 13.09 32.39 12.98L32.39 12.98L32.39 12.98Q32.28 12.88 32.28 12.74L32.28 12.74L32.28 6.16L32.28 6.16Q32.28 6.01 32.39 5.91L32.39 5.91L32.39 5.91Q32.49 5.81 32.63 5.81L32.63 5.81L34.38 5.81L34.38 5.81Q34.54 5.81 34.64 5.91L34.64 5.91L34.64 5.91Q34.75 6.01 34.75 6.16L34.75 6.16L34.75 12.74L34.75 12.74Q34.75 12.89 34.64 12.99L34.64 12.99L34.64 12.99Q34.54 13.09 34.38 13.09L34.38 13.09L32.63 13.09ZM37.55 13.09L37.55 13.09Q37.39 13.09 37.29 12.99L37.29 12.99L37.29 12.99Q37.18 12.89 37.18 12.74L37.18 12.74L37.18 7.71L36.13 7.71L36.13 7.71Q35.98 7.71 35.88 7.62L35.88 7.62L35.88 7.62Q35.77 7.52 35.77 7.36L35.77 7.36L35.77 6.16L35.77 6.16Q35.77 6.01 35.88 5.91L35.88 5.91L35.88 5.91Q35.98 5.81 36.13 5.81L36.13 5.81L37.18 5.81L37.18 5.39L37.18 5.39Q37.18 3.99 38.00 3.36L38.00 3.36L38.00 3.36Q38.81 2.73 40.32 2.73L40.32 2.73L41.43 2.73L41.43 2.73Q41.58 2.73 41.69 2.83L41.69 2.83L41.69 2.83Q41.79 2.93 41.79 3.08L41.79 3.08L41.79 4.28L41.79 4.28Q41.79 4.44 41.69 4.54L41.69 4.54L41.69 4.54Q41.58 4.63 41.43 4.63L41.43 4.63L40.43 4.63L40.43 4.63Q39.98 4.63 39.80 4.84L39.80 4.84L39.80 4.84Q39.61 5.04 39.61 5.46L39.61 5.46L39.61 5.81L41.29 5.81L41.29 5.81Q41.44 5.81 41.55 5.91L41.55 5.91L41.55 5.91Q41.65 6.01 41.65 6.16L41.65 6.16L41.65 7.36L41.65 7.36Q41.65 7.52 41.55 7.62L41.55 7.62L41.55 7.62Q41.44 7.71 41.29 7.71L41.29 7.71L39.61 7.71L39.61 12.74L39.61 12.74Q39.61 12.88 39.51 12.98L39.51 12.98L39.51 12.98Q39.41 13.09 39.26 13.09L39.26 13.09L37.55 13.09ZM43.99 15.75L43.99 15.75Q43.86 15.75 43.78 15.67L43.78 15.67L43.78 15.67Q43.69 15.58 43.69 15.46L43.69 15.46L43.69 15.46Q43.69 15.36 43.72 15.27L43.72 15.27L44.83 12.64L42.14 6.29L42.14 6.29Q42.10 6.17 42.10 6.13L42.10 6.13L42.10 6.13Q42.13 5.99 42.22 5.90L42.22 5.90L42.22 5.90Q42.31 5.81 42.43 5.81L42.43 5.81L44.10 5.81L44.10 5.81Q44.39 5.81 44.51 6.10L44.51 6.10L46.06 10.08L47.66 6.10L47.66 6.10Q47.80 5.81 48.08 5.81L48.08 5.81L49.73 5.81L49.73 5.81Q49.85 5.81 49.95 5.90L49.95 5.90L49.95 5.90Q50.04 5.99 50.04 6.10L50.04 6.10L50.04 6.10Q50.04 6.20 50.01 6.29L50.01 6.29L46.05 15.46L46.05 15.46Q45.91 15.75 45.61 15.75L45.61 15.75L43.99 15.75Z"></path></g><!----><g data-v-423bf9ae="" id="934efae5-07f2-48a2-aca2-90a06953f1ba" transform="matrix(1.00457943889419,0,0,1.00457943889419,-4.2289719447094996,-5.023832640299176)" stroke="none" fill="#39C643"><path d="M27.143 94.794C14.932 94.794 5 84.862 5 72.652V35.498c0-3.549 2.877-6.427 6.428-6.427s6.428 2.878 6.428 6.427v37.155c0 5.121 4.166 9.287 9.287 9.287s9.287-4.166 9.287-9.287a9.278 9.278 0 0 0-5.068-8.279 6.43 6.43 0 0 1 5.868-11.443c7.433 3.814 12.056 11.37 12.056 19.72-.001 12.211-9.932 22.143-22.143 22.143z"></path><path d="M65.715 79.083a6.432 6.432 0 0 1-6.431-6.431c0-15.46-11.01-28.752-26.177-31.594a6.432 6.432 0 0 1-5.139-7.5 6.433 6.433 0 0 1 7.506-5.136c21.246 3.981 36.668 22.584 36.668 44.23a6.43 6.43 0 0 1-6.427 6.431z"></path><path d="M88.572 79.083a6.432 6.432 0 0 1-6.431-6.431c0-27.938-20.892-51.424-48.595-54.632a6.429 6.429 0 1 1 1.48-12.773C69.216 9.207 95 38.185 95 72.652a6.43 6.43 0 0 1-6.428 6.431z"></path></g><!----></svg>