<svg data-v-423bf9ae="" xmlns="http://www.w3.org/2000/svg" viewBox="0 0 553 90" class="iconLeft"><!----><!----><!----><g data-v-423bf9ae="" id="9933c7b3-1a2d-4df4-ace3-b43606a6b48e" fill="black" transform="matrix(5.660377154786554,0,0,5.660377154786554,138.89051859934324,14.377358859074036)"><path d="M0.67 5.73C0.67 7.36 1.16 8.68 2.00 9.52C2.87 10.39 4.24 10.71 5.81 10.71C6.93 10.71 8.22 10.40 8.89 10.04L9.09 7.70L8.67 7.70C8.27 9.16 7.56 10.22 5.73 10.22C2.84 10.22 2.24 7.38 2.24 5.68C2.24 3.39 3.15 1.09 5.75 1.09C7.18 1.09 8.18 1.68 8.44 3.33L8.86 3.33L8.86 1.15C8.23 0.85 7.17 0.60 5.89 0.60C4.17 0.60 2.79 1.11 1.95 2.04C1.15 2.94 0.67 4.14 0.67 5.73ZM10.02 10.50L13.72 10.50L13.72 10.09C12.47 10.02 12.39 10.00 12.39 9.28L12.39 6.01C12.39 4.93 12.87 4.56 13.19 4.56C13.41 4.56 13.65 4.65 14.06 4.87C14.15 4.93 14.27 4.94 14.34 4.94C14.67 4.94 14.98 4.59 14.98 4.16C14.98 3.85 14.78 3.47 14.24 3.47C13.73 3.47 13.31 3.78 12.39 4.59L12.22 3.47L10.09 3.82L10.09 4.17L10.63 4.24C10.99 4.30 11.07 4.37 11.07 4.87L11.07 9.28C11.07 10.00 11.00 10.02 10.02 10.09ZM16.31 1.34C16.31 1.85 16.66 2.20 17.16 2.20C17.67 2.20 18.02 1.85 18.02 1.34C18.02 0.84 17.67 0.49 17.16 0.49C16.66 0.49 16.31 0.84 16.31 1.34ZM15.47 10.50L18.89 10.50L18.89 10.09C17.89 10.02 17.84 10.00 17.84 9.28L17.84 3.56L17.74 3.47L15.54 3.82L15.54 4.17L16.07 4.24C16.44 4.30 16.52 4.37 16.52 4.87L16.52 9.28C16.52 10.00 16.48 10.02 15.47 10.09ZM19.75 8.16L19.89 10.00C20.40 10.44 21.25 10.67 22.08 10.67C23.74 10.67 24.70 9.79 24.70 8.60C24.70 7.36 23.94 6.80 22.50 6.36C21.92 6.17 21 5.88 21 5.10C21 4.37 21.56 3.96 22.26 3.96C23.25 3.96 23.73 4.73 23.83 5.59L24.23 5.59L24.23 3.95C23.77 3.61 23.06 3.47 22.43 3.47C20.92 3.47 19.88 4.19 19.88 5.52C19.88 6.68 20.83 7.20 21.99 7.55C22.62 7.74 23.51 8.06 23.51 9.02C23.51 9.73 22.95 10.18 22.20 10.18C21.07 10.18 20.44 9.35 20.16 8.16ZM25.89 7.07C25.89 9.34 26.99 10.67 29.25 10.67C31.50 10.67 32.61 9.34 32.61 7.07C32.61 4.80 31.50 3.47 29.25 3.47C26.99 3.47 25.89 4.80 25.89 7.07ZM27.34 7.07C27.34 5.14 27.96 3.96 29.25 3.96C30.53 3.96 31.15 5.14 31.15 7.07C31.15 9.00 30.53 10.18 29.25 10.18C27.96 10.18 27.34 9.00 27.34 7.07ZM33.73 10.50L37.14 10.50L37.14 10.09C36.15 10.02 36.09 10.00 36.09 9.28L36.09 6.01C36.09 5.66 36.12 5.46 36.23 5.24C36.53 4.69 37.16 4.23 37.90 4.23C38.85 4.23 39.37 4.76 39.37 5.98L39.37 9.28C39.37 10.00 39.33 10.02 38.32 10.09L38.32 10.50L41.73 10.50L41.73 10.09C40.74 10.02 40.68 10.00 40.68 9.28L40.68 5.70C40.68 4.28 39.91 3.47 38.63 3.47C37.59 3.47 36.95 3.98 36.08 4.54L35.88 3.47L33.80 3.82L33.80 4.17L34.33 4.24C34.69 4.30 34.78 4.37 34.78 4.87L34.78 9.28C34.78 10.00 34.73 10.02 33.73 10.09ZM42.25 3.14L42.67 3.14C42.84 1.61 43.13 1.30 44.77 1.30L45.60 1.30L45.60 9.20C45.60 9.98 45.56 10.01 44.06 10.09L44.06 10.50L48.52 10.50L48.52 10.09C47.03 10.01 46.98 9.98 46.98 9.20L46.98 1.30L47.81 1.30C49.45 1.30 49.74 1.61 49.91 3.14L50.33 3.14L50.33 0.81L42.25 0.81ZM51.32 7.13C51.32 9.34 52.28 10.67 54.56 10.67C56.11 10.67 56.91 9.80 57.29 8.69L56.87 8.47C56.48 9.28 55.94 9.95 54.84 9.95C53.10 9.95 52.75 8.27 52.78 6.82L56.81 6.82C57.11 6.82 57.37 6.75 57.37 6.29C57.37 5.46 57.11 3.47 54.54 3.47C52.36 3.47 51.32 5.03 51.32 7.13ZM52.79 6.29C52.79 5.71 53.00 3.96 54.46 3.96C55.76 3.96 55.92 5.29 55.92 5.84C55.92 6.10 55.83 6.29 55.44 6.29ZM58.52 7.14C58.52 9.48 59.67 10.67 61.77 10.67C62.75 10.67 64.06 10.15 64.46 8.65L64.05 8.46C63.62 9.44 63.06 9.94 62.03 9.94C60.37 9.94 59.98 8.20 59.98 6.89C59.98 4.80 60.80 3.96 61.77 3.96C62.41 3.96 62.82 4.42 63.10 5.18C63.18 5.40 63.27 5.54 63.53 5.54C63.81 5.54 64.36 5.36 64.36 4.83C64.36 4.19 63.43 3.47 61.92 3.47C59.37 3.47 58.52 5.28 58.52 7.14ZM65.07 10.50L68.47 10.50L68.47 10.09C67.51 10.02 67.42 9.97 67.42 9.28L67.42 6.01C67.42 5.66 67.44 5.46 67.55 5.25C67.84 4.69 68.49 4.23 69.23 4.23C70.18 4.23 70.70 4.76 70.70 5.98L70.70 9.28C70.70 9.97 70.63 10.02 69.65 10.09L69.65 10.50L73.07 10.50L73.07 10.09C72.10 10.02 72.02 9.97 72.02 9.28L72.02 5.70C72.02 4.28 71.25 3.47 69.94 3.47C68.92 3.47 68.29 3.95 67.41 4.54L67.41 0.20L67.31 0.11L65.13 0.46L65.13 0.81L65.66 0.88C66.02 0.94 66.11 1.01 66.11 1.51L66.11 9.28C66.11 9.97 66.05 10.02 65.07 10.09Z"></path></g><!----><g data-v-423bf9ae="" id="3607f231-29cf-423a-bc74-8e50d37f6fa5" transform="matrix(1.3500337323034157,0,0,1.3500337323034157,-5.938687056738075,-21.834012152207947)" stroke="none" fill="black"><path d="M95.437 42.122L50 16.667 4.563 42.122l9.042 5.065v16.521a4 4 0 0 0-3.21 3.92c0 1.175.516 2.221 1.322 2.954l-1.322 11.812s1.481.938 4 .938 4-.938 4-.938l-1.322-11.812a3.978 3.978 0 0 0 1.322-2.954 4 4 0 0 0-3.21-3.92V48.072l6.765 3.791V45.37c0-5.188 14.453-7.988 28.05-7.988s28.05 2.8 28.05 7.988v6.494l17.387-9.742z"></path><path d="M50 59.591c-15.599 0-26.469 3.377-26.469 6.408 0 3.03 10.87 6.407 26.469 6.407s26.47-3.377 26.47-6.407c0-3.031-10.871-6.408-26.47-6.408z"></path><path d="M50 38.961c-15.599 0-26.469 3.377-26.469 6.408v17.839C27.634 59.814 39.087 58.01 50 58.01s22.368 1.805 26.47 5.198V45.37c0-3.032-10.871-6.409-26.47-6.409z"></path></g><!----></svg>