<svg data-v-423bf9ae="" xmlns="http://www.w3.org/2000/svg" viewBox="0 0 484 90" class="iconLeft"><!----><!----><!----><g data-v-423bf9ae="" id="f9b09489-2351-4604-b0fd-a923f2a609aa" fill="black" transform="matrix(5.8365760270947415,0,0,5.8365760270947415,141.21734035761386,-6.245136158813153)"><path d="M4.66 13.75L3.98 13.75L1.26 6.59L2.27 6.59L4.10 11.52L4.10 11.52Q4.28 12.00 4.35 12.22L4.35 12.22L4.35 12.22Q4.42 12.00 4.61 11.52L4.61 11.52L6.40 6.59L7.38 6.59L4.66 13.75ZM12.49 13.92L12.49 13.92L12.49 13.92Q11.33 13.92 10.65 13.29L10.65 13.29L10.65 13.29Q9.97 12.67 9.97 11.49L9.97 11.49L9.97 11.49Q9.97 10.33 10.74 9.73L10.74 9.73L10.74 9.73Q11.51 9.13 12.66 9.13L12.66 9.13L12.66 9.13Q13.73 9.13 14.67 9.63L14.67 9.63L14.67 9.03L14.67 9.03Q14.67 7.28 13.10 7.28L13.10 7.28L13.10 7.28Q12.05 7.28 10.84 8.05L10.84 8.05L10.56 7.21L10.56 7.21Q11.86 6.43 13.20 6.43L13.20 6.43L13.20 6.43Q13.64 6.43 14.01 6.53L14.01 6.53L14.01 6.53Q14.39 6.64 14.76 6.90L14.76 6.90L14.76 6.90Q15.13 7.15 15.36 7.67L15.36 7.67L15.36 7.67Q15.58 8.18 15.58 8.90L15.58 8.90L15.58 13.75L14.67 13.75L14.67 13.05L14.67 13.05Q13.71 13.92 12.49 13.92ZM12.59 13.06L12.59 13.06L12.59 13.06Q13.78 13.06 14.67 11.96L14.67 11.96L14.67 10.57L14.67 10.57Q13.79 9.98 12.75 9.98L12.75 9.98L12.75 9.98Q11.94 9.98 11.41 10.37L11.41 10.37L11.41 10.37Q10.88 10.75 10.88 11.49L10.88 11.49L10.88 11.49Q10.88 12.21 11.33 12.64L11.33 12.64L11.33 12.64Q11.77 13.06 12.59 13.06ZM21.70 6.43L21.70 6.43L21.70 6.43Q23.07 6.43 23.71 7.22L23.71 7.22L23.71 7.22Q24.35 8.02 24.35 9.79L24.35 9.79L24.35 13.75L23.37 13.75L23.37 9.38L23.37 9.38Q23.37 8.30 22.89 7.81L22.89 7.81L22.89 7.81Q22.41 7.31 21.62 7.31L21.62 7.31L21.62 7.31Q19.77 7.31 19.77 9.35L19.77 9.35L19.77 13.75L18.79 13.75L18.79 6.59L19.71 6.59L19.71 7.45L19.71 7.45Q20.38 6.43 21.70 6.43ZM29.97 13.92L29.97 13.92L29.97 13.92Q28.56 13.92 27.74 12.90L27.74 12.90L27.74 12.90Q26.92 11.89 26.92 10.16L26.92 10.16L26.92 10.16Q26.92 8.41 27.74 7.42L27.74 7.42L27.74 7.42Q28.56 6.43 29.97 6.43L29.97 6.43L29.97 6.43Q31.14 6.43 31.98 7.10L31.98 7.10L31.98 4.13L32.96 3.64L32.96 13.75L31.98 13.75L31.98 13.13L31.98 13.13Q31.19 13.92 29.97 13.92ZM30.09 13.03L30.09 13.03L30.09 13.03Q31.36 13.03 31.98 11.91L31.98 11.91L31.98 8.34L31.98 8.34Q31.33 7.31 30.09 7.31L30.09 7.31L30.09 7.31Q29.05 7.31 28.50 8.05L28.50 8.05L28.50 8.05Q27.94 8.79 27.94 10.16L27.94 10.16L27.94 10.16Q27.94 11.40 28.53 12.22L28.53 12.22L28.53 12.22Q29.12 13.03 30.09 13.03ZM41.87 9.88L41.87 9.88L41.87 9.88Q41.87 10.26 41.85 10.57L41.85 10.57L36.78 10.57L36.78 10.57Q36.92 11.72 37.49 12.36L37.49 12.36L37.49 12.36Q38.07 13.01 38.99 13.01L38.99 13.01L38.99 13.01Q39.90 13.01 40.70 12.45L40.70 12.45L41.23 13.10L41.23 13.10Q40.19 13.92 38.95 13.92L38.95 13.92L38.95 13.92Q37.48 13.92 36.61 12.83L36.61 12.83L36.61 12.83Q35.74 11.75 35.74 10.16L35.74 10.16L35.74 10.16Q35.74 8.40 36.61 7.41L36.61 7.41L36.61 7.41Q37.48 6.43 38.95 6.43L38.95 6.43L38.95 6.43Q40.22 6.43 41.05 7.30L41.05 7.30L41.05 7.30Q41.87 8.18 41.87 9.88ZM36.75 9.69L36.75 9.69L40.88 9.69L40.88 9.69Q40.87 8.39 40.29 7.85L40.29 7.85L40.29 7.85Q39.70 7.31 38.95 7.31L38.95 7.31L38.95 7.31Q37.91 7.31 37.36 7.94L37.36 7.94L37.36 7.94Q36.81 8.57 36.75 9.69ZM47.92 3.64L47.92 12.87L49.90 12.87L49.90 13.75L44.97 13.75L44.97 12.87L46.94 12.87L46.94 4.52L45.19 4.52L44.76 3.64L47.92 3.64ZM55.61 13.92L55.61 13.92L55.61 13.92Q54.45 13.92 53.77 13.29L53.77 13.29L53.77 13.29Q53.09 12.67 53.09 11.49L53.09 11.49L53.09 11.49Q53.09 10.33 53.86 9.73L53.86 9.73L53.86 9.73Q54.63 9.13 55.78 9.13L55.78 9.13L55.78 9.13Q56.85 9.13 57.79 9.63L57.79 9.63L57.79 9.03L57.79 9.03Q57.79 7.28 56.22 7.28L56.22 7.28L56.22 7.28Q55.17 7.28 53.96 8.05L53.96 8.05L53.68 7.21L53.68 7.21Q54.98 6.43 56.32 6.43L56.32 6.43L56.32 6.43Q56.76 6.43 57.13 6.53L57.13 6.53L57.13 6.53Q57.51 6.64 57.88 6.90L57.88 6.90L57.88 6.90Q58.25 7.15 58.48 7.67L58.48 7.67L58.48 7.67Q58.70 8.18 58.70 8.90L58.70 8.90L58.70 13.75L57.79 13.75L57.79 13.05L57.79 13.05Q56.83 13.92 55.61 13.92ZM55.71 13.06L55.71 13.06L55.71 13.06Q56.90 13.06 57.79 11.96L57.79 11.96L57.79 10.57L57.79 10.57Q56.91 9.98 55.87 9.98L55.87 9.98L55.87 9.98Q55.06 9.98 54.53 10.37L54.53 10.37L54.53 10.37Q54.00 10.75 54.00 11.49L54.00 11.49L54.00 11.49Q54.00 12.21 54.45 12.64L54.45 12.64L54.45 12.64Q54.89 13.06 55.71 13.06Z"></path></g><!----><g data-v-423bf9ae="" id="aaad87f5-1c67-4ec7-9cd2-3398db58cf7e" transform="matrix(1.6071428571428572,0,0,1.6071428571428572,-15.357142857142861,-35.35714285714286)" stroke="none" fill="black"><path d="M74 64L50 78 26 64v-8l24 14 24-14z"></path><path d="M59.24 41.842a4 4 0 0 1-1.732-5.385 3.997 3.997 0 0 1 5.385-1.732l20.866 10.708L90 42 50 22 10 42l40 22 25.301-13.915-16.061-8.243z"></path><path d="M82 58.555V46.778L61.979 36.504a2 2 0 1 0-1.826 3.558L78 49.222v9.333c-1.191.693-2 1.968-2 3.445v12a4 4 0 0 0 8 0V62c0-1.477-.809-2.752-2-3.445z"></path></g><!----></svg>