<svg data-v-423bf9ae="" xmlns="http://www.w3.org/2000/svg" viewBox="0 0 306 90" class="iconLeft"><!----><!----><!----><g data-v-423bf9ae="" id="94fafee1-4ea0-4a27-92b8-bfb1b83c27a2" fill="black" transform="matrix(4.332129844579322,0,0,4.332129844579322,56.22185613315213,2.783395319580073)"><path d="M3.02 5.22L3.02 6.37L4.66 6.37L4.66 7.40L3.02 7.40L3.02 12.28L4.13 12.28L4.13 13.45L0.68 13.45L0.68 12.28L1.75 12.28L1.75 7.40L0.58 7.40L0.58 6.37L1.75 6.37L1.75 5.26L1.75 5.26Q1.76 4.65 1.93 4.19L1.93 4.19L1.93 4.19Q2.09 3.73 2.39 3.42L2.39 3.42L2.39 3.42Q2.69 3.12 3.12 2.97L3.12 2.97L3.12 2.97Q3.54 2.82 4.06 2.82L4.06 2.82L4.06 2.82Q4.42 2.82 4.71 2.85L4.71 2.85L4.71 2.85Q5.00 2.88 5.22 2.94L5.22 2.94L5.22 2.94Q5.45 3.00 5.62 3.07L5.62 3.07L5.62 3.07Q5.80 3.14 5.93 3.21L5.93 3.21L5.54 4.12L5.54 4.12Q5.33 4.00 4.97 3.92L4.97 3.92L4.97 3.92Q4.62 3.83 4.24 3.83L4.24 3.83L4.24 3.83Q3.67 3.83 3.35 4.19L3.35 4.19L3.35 4.19Q3.02 4.54 3.02 5.22L3.02 5.22ZM5.68 9.91L5.68 9.91L5.68 9.91Q5.69 9.07 5.95 8.38L5.95 8.38L5.95 8.38Q6.21 7.69 6.69 7.19L6.69 7.19L6.69 7.19Q7.16 6.70 7.81 6.43L7.81 6.43L7.81 6.43Q8.46 6.17 9.24 6.17L9.24 6.17L9.24 6.17Q10.02 6.17 10.67 6.43L10.67 6.43L10.67 6.43Q11.33 6.70 11.79 7.19L11.79 7.19L11.79 7.19Q12.26 7.68 12.52 8.37L12.52 8.37L12.52 8.37Q12.78 9.06 12.78 9.90L12.78 9.90L12.78 9.90Q12.78 10.73 12.52 11.42L12.52 11.42L12.52 11.42Q12.26 12.11 11.79 12.61L11.79 12.61L11.79 12.61Q11.33 13.11 10.67 13.39L10.67 13.39L10.67 13.39Q10.02 13.67 9.24 13.67L9.24 13.67L9.24 13.67Q8.44 13.67 7.79 13.39L7.79 13.39L7.79 13.39Q7.14 13.12 6.67 12.62L6.67 12.62L6.67 12.62Q6.21 12.13 5.95 11.44L5.95 11.44L5.95 11.44Q5.69 10.75 5.68 9.91ZM7.03 9.91L7.03 9.91L7.03 9.91Q7.03 10.52 7.20 11.01L7.20 11.01L7.20 11.01Q7.38 11.50 7.68 11.85L7.68 11.85L7.68 11.85Q7.98 12.20 8.38 12.38L8.38 12.38L8.38 12.38Q8.78 12.57 9.24 12.57L9.24 12.57L9.24 12.57Q9.71 12.57 10.11 12.39L10.11 12.39L10.11 12.39Q10.52 12.20 10.82 11.86L10.82 11.86L10.82 11.86Q11.12 11.51 11.29 11.02L11.29 11.02L11.29 11.02Q11.46 10.53 11.46 9.91L11.46 9.91L11.46 9.91Q11.46 9.27 11.29 8.77L11.29 8.77L11.29 8.77Q11.12 8.27 10.82 7.94L10.82 7.94L10.82 7.94Q10.53 7.60 10.12 7.43L10.12 7.43L10.12 7.43Q9.71 7.26 9.24 7.26L9.24 7.26L9.24 7.26Q8.78 7.26 8.38 7.43L8.38 7.43L8.38 7.43Q7.98 7.60 7.68 7.94L7.68 7.94L7.68 7.94Q7.38 8.27 7.20 8.77L7.20 8.77L7.20 8.77Q7.03 9.27 7.03 9.91ZM18.33 3.99L18.33 2.82L20.56 2.82L20.56 12.28L21.60 12.28L21.60 13.45L19.29 13.45L19.29 12.87L19.29 12.87Q18.95 13.22 18.50 13.42L18.50 13.42L18.50 13.42Q18.05 13.61 17.47 13.61L17.47 13.61L17.47 13.61Q16.75 13.61 16.14 13.36L16.14 13.36L16.14 13.36Q15.52 13.11 15.06 12.63L15.06 12.63L15.06 12.63Q14.61 12.15 14.35 11.45L14.35 11.45L14.35 11.45Q14.10 10.75 14.10 9.84L14.10 9.84L14.10 9.84Q14.10 9.02 14.34 8.35L14.34 8.35L14.34 8.35Q14.59 7.68 15.04 7.20L15.04 7.20L15.04 7.20Q15.49 6.73 16.13 6.46L16.13 6.46L16.13 6.46Q16.76 6.20 17.54 6.20L17.54 6.20L17.54 6.20Q18.05 6.20 18.48 6.31L18.48 6.31L18.48 6.31Q18.90 6.43 19.29 6.71L19.29 6.71L19.29 3.99L18.33 3.99ZM17.64 12.50L17.64 12.50L17.64 12.50Q18.20 12.50 18.59 12.34L18.59 12.34L18.59 12.34Q18.97 12.17 19.29 11.83L19.29 11.83L19.29 7.87L19.29 7.87Q18.95 7.58 18.50 7.45L18.50 7.45L18.50 7.45Q18.06 7.32 17.60 7.32L17.60 7.32L17.60 7.32Q17.14 7.32 16.75 7.49L16.75 7.49L16.75 7.49Q16.35 7.66 16.05 7.98L16.05 7.98L16.05 7.98Q15.76 8.30 15.59 8.76L15.59 8.76L15.59 8.76Q15.42 9.23 15.42 9.83L15.42 9.83L15.42 9.83Q15.42 10.49 15.58 10.99L15.58 10.99L15.58 10.99Q15.74 11.48 16.04 11.82L16.04 11.82L16.04 11.82Q16.33 12.16 16.74 12.33L16.74 12.33L16.74 12.33Q17.15 12.50 17.64 12.50ZM22.35 7.55L22.35 6.37L25.03 6.37L25.03 7.55L24.19 7.55L25.85 12.07L27.59 7.55L26.76 7.55L26.76 6.37L29.44 6.37L29.44 7.55L28.71 7.55L25.56 15.50L26.53 15.50L26.53 16.67L23.67 16.67L23.67 15.50L24.53 15.50L25.29 13.55L22.92 7.55L22.35 7.55ZM37.26 8.26L35.97 8.26L35.97 8.26Q35.68 7.75 35.24 7.51L35.24 7.51L35.24 7.51Q34.80 7.27 34.22 7.27L34.22 7.27L34.22 7.27Q33.78 7.27 33.39 7.45L33.39 7.45L33.39 7.45Q33.00 7.64 32.71 7.98L32.71 7.98L32.71 7.98Q32.42 8.32 32.25 8.81L32.25 8.81L32.25 8.81Q32.08 9.30 32.08 9.90L32.08 9.90L32.08 9.90Q32.08 10.49 32.25 10.97L32.25 10.97L32.25 10.97Q32.42 11.45 32.71 11.79L32.71 11.79L32.71 11.79Q33.00 12.13 33.39 12.31L33.39 12.31L33.39 12.31Q33.78 12.49 34.22 12.49L34.22 12.49L34.22 12.49Q34.88 12.49 35.36 12.17L35.36 12.17L35.36 12.17Q35.85 11.85 36.13 11.24L36.13 11.24L37.19 11.76L37.19 11.76Q36.98 12.20 36.68 12.54L36.68 12.54L36.68 12.54Q36.38 12.89 36.00 13.14L36.00 13.14L36.00 13.14Q35.62 13.38 35.17 13.52L35.17 13.52L35.17 13.52Q34.71 13.65 34.21 13.65L34.21 13.65L34.21 13.65Q33.47 13.65 32.84 13.37L32.84 13.37L32.84 13.37Q32.22 13.10 31.76 12.60L31.76 12.60L31.76 12.60Q31.31 12.10 31.06 11.41L31.06 11.41L31.06 11.41Q30.80 10.72 30.80 9.90L30.80 9.90L30.80 9.90Q30.80 9.08 31.07 8.39L31.07 8.39L31.07 8.39Q31.34 7.70 31.80 7.20L31.80 7.20L31.80 7.20Q32.27 6.71 32.89 6.43L32.89 6.43L32.89 6.43Q33.51 6.15 34.22 6.15L34.22 6.15L34.22 6.15Q34.89 6.15 35.49 6.38L35.49 6.38L35.49 6.38Q36.09 6.61 36.54 7.08L36.54 7.08L37.26 7.08L37.26 8.26ZM42.66 13.45L42.66 12.80L42.66 12.80Q42.26 13.17 41.77 13.41L41.77 13.41L41.77 13.41Q41.28 13.65 40.66 13.65L40.66 13.65L40.66 13.65Q40.14 13.65 39.71 13.49L39.71 13.49L39.71 13.49Q39.27 13.32 38.96 13.04L38.96 13.04L38.96 13.04Q38.64 12.76 38.47 12.38L38.47 12.38L38.47 12.38Q38.29 12.00 38.29 11.58L38.29 11.58L38.29 11.58Q38.29 11.13 38.43 10.78L38.43 10.78L38.43 10.78Q38.56 10.43 38.78 10.18L38.78 10.18L38.78 10.18Q39.01 9.92 39.30 9.74L39.30 9.74L39.30 9.74Q39.60 9.57 39.93 9.46L39.93 9.46L39.93 9.46Q40.25 9.36 40.59 9.31L40.59 9.31L40.59 9.31Q40.93 9.27 41.23 9.27L41.23 9.27L41.23 9.27Q41.73 9.27 42.06 9.30L42.06 9.30L42.06 9.30Q42.40 9.33 42.67 9.39L42.67 9.39L42.68 8.80L42.68 8.80Q42.68 8.43 42.57 8.15L42.57 8.15L42.57 8.15Q42.46 7.88 42.26 7.69L42.26 7.69L42.26 7.69Q42.06 7.51 41.78 7.42L41.78 7.42L41.78 7.42Q41.51 7.33 41.17 7.33L41.17 7.33L41.17 7.33Q40.84 7.33 40.55 7.38L40.55 7.38L40.55 7.38Q40.26 7.42 40.00 7.50L40.00 7.50L40.00 7.50Q39.74 7.57 39.53 7.66L39.53 7.66L39.53 7.66Q39.31 7.75 39.16 7.85L39.16 7.85L38.75 6.97L38.75 6.97Q39.00 6.81 39.30 6.67L39.30 6.67L39.30 6.67Q39.60 6.53 39.93 6.43L39.93 6.43L39.93 6.43Q40.26 6.33 40.61 6.27L40.61 6.27L40.61 6.27Q40.95 6.21 41.29 6.21L41.29 6.21L41.29 6.21Q41.90 6.21 42.40 6.36L42.40 6.36L42.40 6.36Q42.89 6.51 43.23 6.82L43.23 6.82L43.23 6.82Q43.57 7.12 43.76 7.60L43.76 7.60L43.76 7.60Q43.94 8.07 43.94 8.74L43.94 8.74L43.93 12.28L44.72 12.28L44.72 13.45L42.66 13.45ZM40.94 12.58L40.94 12.58L40.94 12.58Q41.19 12.58 41.45 12.52L41.45 12.52L41.45 12.52Q41.70 12.46 41.92 12.36L41.92 12.36L41.92 12.36Q42.15 12.25 42.34 12.11L42.34 12.11L42.34 12.11Q42.53 11.97 42.66 11.82L42.66 11.82L42.67 10.22L41.19 10.22L41.19 10.22Q40.82 10.22 40.52 10.30L40.52 10.30L40.52 10.30Q40.22 10.38 39.99 10.54L39.99 10.54L39.99 10.54Q39.77 10.70 39.65 10.93L39.65 10.93L39.65 10.93Q39.53 11.16 39.53 11.46L39.53 11.46L39.53 11.46Q39.53 11.74 39.63 11.95L39.63 11.95L39.63 11.95Q39.73 12.16 39.92 12.30L39.92 12.30L39.92 12.30Q40.11 12.44 40.37 12.51L40.37 12.51L40.37 12.51Q40.63 12.58 40.94 12.58ZM48.49 5.22L48.49 6.37L50.13 6.37L50.13 7.40L48.49 7.40L48.49 12.28L49.60 12.28L49.60 13.45L46.16 13.45L46.16 12.28L47.22 12.28L47.22 7.40L46.05 7.40L46.05 6.37L47.22 6.37L47.22 5.26L47.22 5.26Q47.24 4.65 47.40 4.19L47.40 4.19L47.40 4.19Q47.56 3.73 47.87 3.42L47.87 3.42L47.87 3.42Q48.17 3.12 48.59 2.97L48.59 2.97L48.59 2.97Q49.01 2.82 49.53 2.82L49.53 2.82L49.53 2.82Q49.90 2.82 50.18 2.85L50.18 2.85L50.18 2.85Q50.47 2.88 50.70 2.94L50.70 2.94L50.70 2.94Q50.92 3.00 51.10 3.07L51.10 3.07L51.10 3.07Q51.27 3.14 51.41 3.21L51.41 3.21L51.02 4.12L51.02 4.12Q50.80 4.00 50.45 3.92L50.45 3.92L50.45 3.92Q50.09 3.83 49.71 3.83L49.71 3.83L49.71 3.83Q49.14 3.83 48.82 4.19L48.82 4.19L48.82 4.19Q48.49 4.54 48.49 5.22L48.49 5.22ZM57.55 10.08L52.45 10.08L52.45 10.08Q52.45 10.38 52.50 10.63L52.50 10.63L52.50 10.63Q52.54 10.88 52.62 11.10L52.62 11.10L52.62 11.10Q52.88 11.79 53.43 12.13L53.43 12.13L53.43 12.13Q53.99 12.48 54.69 12.48L54.69 12.48L54.69 12.48Q55.25 12.48 55.77 12.32L55.77 12.32L55.77 12.32Q56.29 12.17 56.87 11.84L56.87 11.84L57.38 12.71L57.38 12.71Q56.68 13.19 55.98 13.42L55.98 13.42L55.98 13.42Q55.28 13.65 54.52 13.65L54.52 13.65L54.52 13.65Q53.80 13.65 53.19 13.41L53.19 13.41L53.19 13.41Q52.58 13.17 52.13 12.70L52.13 12.70L52.13 12.70Q51.69 12.23 51.44 11.53L51.44 11.53L51.44 11.53Q51.19 10.82 51.19 9.88L51.19 9.88L51.19 9.88Q51.19 9.13 51.41 8.45L51.41 8.45L51.41 8.45Q51.62 7.78 52.04 7.28L52.04 7.28L52.04 7.28Q52.46 6.77 53.08 6.48L53.08 6.48L53.08 6.48Q53.70 6.19 54.53 6.19L54.53 6.19L54.53 6.19Q55.33 6.19 55.87 6.43L55.87 6.43L55.87 6.43Q56.40 6.67 56.74 7.07L56.74 7.07L56.74 7.07Q57.08 7.47 57.25 7.98L57.25 7.98L57.25 7.98Q57.43 8.50 57.50 9.03L57.50 9.03L57.50 9.03Q57.53 9.29 57.54 9.56L57.54 9.56L57.54 9.56Q57.55 9.82 57.55 10.08L57.55 10.08ZM54.44 7.25L54.44 7.25L54.44 7.25Q54.00 7.25 53.67 7.38L53.67 7.38L53.67 7.38Q53.33 7.51 53.10 7.74L53.10 7.74L53.10 7.74Q52.87 7.98 52.73 8.32L52.73 8.32L52.73 8.32Q52.59 8.66 52.52 9.08L52.52 9.08L56.19 9.08L56.19 9.08Q56.16 8.69 56.06 8.35L56.06 8.35L56.06 8.35Q55.97 8.02 55.76 7.77L55.76 7.77L55.76 7.77Q55.56 7.53 55.23 7.39L55.23 7.39L55.23 7.39Q54.91 7.25 54.44 7.25Z"></path></g><!----><g data-v-423bf9ae="" id="3f313a79-f0dd-4fb4-8120-dda414d352ac" transform="matrix(1.1157531675327526,0,0,1.1157531675327526,-36.14577408863743,-10.119101538926493)" stroke="none" fill="black"><path d="M65.316 9.668a2.043 2.043 0 0 0-2.043 2.042v15.316C63.273 34.345 57.318 40.3 50 40.3s-13.273-5.955-13.273-13.274V11.71a2.043 2.043 0 0 0-4.084 0v15.316c0 7.071 4.256 13.159 10.338 15.861v40.424c0 3.871 3.148 7.02 7.02 7.02s7.02-3.149 7.02-7.02V42.888c6.082-2.702 10.338-8.79 10.338-15.861V11.71a2.045 2.045 0 0 0-2.043-2.042zm-12.38 73.644c0 1.619-1.316 2.936-2.936 2.936s-2.936-1.316-2.936-2.936V44.117c.957.164 1.934.268 2.936.268s1.979-.104 2.936-.268v39.195z"></path><path d="M42.343 30.163a2.041 2.041 0 0 0 2.041-2.042V11.71a2.041 2.041 0 1 0-4.084 0v16.41c0 1.129.915 2.043 2.043 2.043zM57.657 30.163a2.043 2.043 0 0 0 2.043-2.042V11.71a2.043 2.043 0 0 0-4.084 0v16.41c0 1.129.914 2.043 2.041 2.043zM50 30.163a2.042 2.042 0 0 0 2.042-2.042V11.71a2.042 2.042 0 1 0-4.084 0v16.41c0 1.129.915 2.043 2.042 2.043z"></path></g><!----></svg>