<svg data-v-423bf9ae="" xmlns="http://www.w3.org/2000/svg" viewBox="0 0 443 90" class="iconLeft"><!----><!----><!----><g data-v-423bf9ae="" id="70b1b937-1790-4b78-8a68-4d8df605880b" fill="white" transform="matrix(4.240282514041758,0,0,4.240282514041758,144.85107380647779,5.628975959050933)"><path d="M4.13 13.13L4.13 13.13L4.13 13.13Q3.36 13.13 2.72 12.93L2.72 12.93L2.72 12.93Q2.08 12.74 1.62 12.28L1.62 12.28L1.62 12.28Q1.16 11.82 0.91 11.08L0.91 11.08L0.91 11.08Q0.66 10.34 0.66 9.27L0.66 9.27L0.66 9.27Q0.66 8.13 0.92 7.38L0.92 7.38L0.92 7.38Q1.18 6.62 1.64 6.16L1.64 6.16L1.64 6.16Q2.11 5.70 2.73 5.51L2.73 5.51L2.73 5.51Q3.36 5.31 4.09 5.31L4.09 5.31L4.09 5.31Q4.76 5.31 5.28 5.42L5.28 5.42L5.28 5.42Q5.80 5.54 6.15 5.74L6.15 5.74L6.15 5.74Q6.50 5.93 6.68 6.20L6.68 6.20L6.68 6.20Q6.86 6.47 6.86 6.78L6.86 6.78L6.86 6.78Q6.86 7.01 6.78 7.22L6.78 7.22L6.78 7.22Q6.71 7.44 6.50 7.60L6.50 7.60L6.50 7.60Q6.30 7.77 5.95 7.87L5.95 7.87L5.95 7.87Q5.60 7.97 5.05 7.97L5.05 7.97L5.05 7.97Q5.05 7.61 5.01 7.28L5.01 7.28L5.01 7.28Q4.96 6.95 4.86 6.71L4.86 6.71L4.86 6.71Q4.76 6.46 4.58 6.31L4.58 6.31L4.58 6.31Q4.41 6.17 4.14 6.17L4.14 6.17L4.14 6.17Q3.83 6.17 3.59 6.31L3.59 6.31L3.59 6.31Q3.35 6.46 3.18 6.82L3.18 6.82L3.18 6.82Q3.00 7.17 2.91 7.77L2.91 7.77L2.91 7.77Q2.82 8.36 2.82 9.26L2.82 9.26L2.82 9.26Q2.82 10.68 3.21 11.38L3.21 11.38L3.21 11.38Q3.60 12.09 4.48 12.09L4.48 12.09L4.48 12.09Q4.84 12.09 5.16 12.00L5.16 12.00L5.16 12.00Q5.48 11.92 5.74 11.76L5.74 11.76L5.74 11.76Q6.00 11.61 6.19 11.40L6.19 11.40L6.19 11.40Q6.38 11.19 6.51 10.95L6.51 10.95L6.51 10.95Q6.68 11.05 6.76 11.23L6.76 11.23L6.76 11.23Q6.84 11.40 6.84 11.59L6.84 11.59L6.84 11.59Q6.84 11.86 6.69 12.13L6.69 12.13L6.69 12.13Q6.53 12.41 6.20 12.63L6.20 12.63L6.20 12.63Q5.87 12.85 5.35 12.99L5.35 12.99L5.35 12.99Q4.84 13.13 4.13 13.13ZM7.62 12.25L7.78 12.25L7.78 12.25Q7.94 12.25 8.11 12.22L8.11 12.22L8.11 12.22Q8.29 12.19 8.43 12.09L8.43 12.09L8.43 12.09Q8.58 12.00 8.68 11.82L8.68 11.82L8.68 11.82Q8.78 11.64 8.78 11.34L8.78 11.34L8.78 3.95L8.78 3.95Q8.78 3.67 8.68 3.50L8.68 3.50L8.68 3.50Q8.58 3.34 8.43 3.24L8.43 3.24L8.43 3.24Q8.28 3.15 8.10 3.12L8.10 3.12L8.10 3.12Q7.93 3.10 7.78 3.10L7.78 3.10L7.62 3.10L7.62 2.36L10.90 2.36L10.90 11.34L10.90 11.34Q10.90 11.64 11.00 11.82L11.00 11.82L11.00 11.82Q11.10 12.00 11.25 12.09L11.25 12.09L11.25 12.09Q11.40 12.19 11.57 12.22L11.57 12.22L11.57 12.22Q11.75 12.25 11.90 12.25L11.90 12.25L12.07 12.25L12.07 13.00L7.62 13.00L7.62 12.25ZM20.23 9.21L20.23 9.21L20.23 9.21Q20.23 11.19 19.30 12.16L19.30 12.16L19.30 12.16Q18.38 13.13 16.58 13.13L16.58 13.13L16.58 13.13Q15.74 13.13 15.07 12.89L15.07 12.89L15.07 12.89Q14.40 12.65 13.93 12.16L13.93 12.16L13.93 12.16Q13.46 11.68 13.21 10.94L13.21 10.94L13.21 10.94Q12.96 10.20 12.96 9.21L12.96 9.21L12.96 9.21Q12.96 7.24 13.89 6.28L13.89 6.28L13.89 6.28Q14.81 5.31 16.62 5.31L16.62 5.31L16.62 5.31Q17.46 5.31 18.13 5.55L18.13 5.55L18.13 5.55Q18.79 5.79 19.26 6.28L19.26 6.28L19.26 6.28Q19.73 6.76 19.98 7.50L19.98 7.50L19.98 7.50Q20.23 8.23 20.23 9.21ZM15.13 9.21L15.13 9.21L15.13 9.21Q15.13 9.96 15.21 10.53L15.21 10.53L15.21 10.53Q15.29 11.09 15.47 11.48L15.47 11.48L15.47 11.48Q15.64 11.86 15.92 12.06L15.92 12.06L15.92 12.06Q16.20 12.25 16.60 12.25L16.60 12.25L16.60 12.25Q17.01 12.25 17.28 12.06L17.28 12.06L17.28 12.06Q17.56 11.86 17.74 11.48L17.74 11.48L17.74 11.48Q17.91 11.09 17.99 10.53L17.99 10.53L17.99 10.53Q18.06 9.96 18.06 9.21L18.06 9.21L18.06 9.21Q18.06 8.46 17.98 7.90L17.98 7.90L17.98 7.90Q17.90 7.33 17.73 6.96L17.73 6.96L17.73 6.96Q17.55 6.58 17.27 6.40L17.27 6.40L17.27 6.40Q16.99 6.21 16.59 6.21L16.59 6.21L16.59 6.21Q16.19 6.21 15.91 6.40L15.91 6.40L15.91 6.40Q15.63 6.58 15.46 6.96L15.46 6.96L15.46 6.96Q15.29 7.33 15.21 7.90L15.21 7.90L15.21 7.90Q15.13 8.46 15.13 9.21ZM29.87 13.00L27.08 13.00L26.78 12.00L26.71 12.00L26.71 12.00Q26.50 12.37 26.25 12.59L26.25 12.59L26.25 12.59Q26.00 12.81 25.72 12.93L25.72 12.93L25.72 12.93Q25.44 13.05 25.13 13.09L25.13 13.09L25.13 13.09Q24.82 13.13 24.49 13.13L24.49 13.13L24.49 13.13Q23.40 13.13 22.81 12.46L22.81 12.46L22.81 12.46Q22.23 11.78 22.23 10.36L22.23 10.36L22.23 7.23L22.23 7.23Q22.23 6.92 22.18 6.73L22.18 6.73L22.18 6.73Q22.12 6.54 22.00 6.43L22.00 6.43L22.00 6.43Q21.89 6.32 21.71 6.28L21.71 6.28L21.71 6.28Q21.53 6.23 21.27 6.23L21.27 6.23L21.25 6.23L21.25 5.49L24.36 5.49L24.36 9.97L24.36 9.97Q24.36 10.42 24.41 10.79L24.41 10.79L24.41 10.79Q24.46 11.15 24.58 11.41L24.58 11.41L24.58 11.41Q24.71 11.66 24.91 11.80L24.91 11.80L24.91 11.80Q25.12 11.94 25.42 11.94L25.42 11.94L25.42 11.94Q25.76 11.94 26.00 11.80L26.00 11.80L26.00 11.80Q26.24 11.65 26.40 11.37L26.40 11.37L26.40 11.37Q26.55 11.09 26.62 10.70L26.62 10.70L26.62 10.70Q26.69 10.31 26.69 9.82L26.69 9.82L26.69 7.13L26.69 7.13Q26.69 6.82 26.61 6.64L26.61 6.64L26.61 6.64Q26.53 6.47 26.39 6.37L26.39 6.37L26.39 6.37Q26.26 6.28 26.07 6.26L26.07 6.26L26.07 6.26Q25.89 6.23 25.68 6.23L25.68 6.23L25.64 6.23L25.64 5.49L28.82 5.49L28.82 11.37L28.82 11.37Q28.82 11.68 28.89 11.85L28.89 11.85L28.89 11.85Q28.96 12.02 29.09 12.11L29.09 12.11L29.09 12.11Q29.21 12.20 29.38 12.23L29.38 12.23L29.38 12.23Q29.55 12.25 29.76 12.25L29.76 12.25L29.87 12.25L29.87 13.00ZM37.89 2.36L37.89 11.27L37.89 11.27Q37.89 11.59 37.99 11.79L37.99 11.79L37.99 11.79Q38.08 11.98 38.24 12.08L38.24 12.08L38.24 12.08Q38.40 12.18 38.61 12.22L38.61 12.22L38.61 12.22Q38.82 12.25 39.05 12.25L39.05 12.25L39.11 12.25L39.11 13.00L36.39 13.00L36.00 11.90L35.88 11.90L35.88 11.90Q35.72 12.19 35.52 12.41L35.52 12.41L35.52 12.41Q35.31 12.64 35.05 12.80L35.05 12.80L35.05 12.80Q34.79 12.96 34.46 13.05L34.46 13.05L34.46 13.05Q34.13 13.13 33.72 13.13L33.72 13.13L33.72 13.13Q33.04 13.13 32.50 12.90L32.50 12.90L32.50 12.90Q31.97 12.67 31.61 12.20L31.61 12.20L31.61 12.20Q31.24 11.72 31.05 10.99L31.05 10.99L31.05 10.99Q30.86 10.26 30.86 9.26L30.86 9.26L30.86 9.26Q30.86 8.24 31.05 7.50L31.05 7.50L31.05 7.50Q31.24 6.76 31.60 6.28L31.60 6.28L31.60 6.28Q31.96 5.80 32.49 5.56L32.49 5.56L32.49 5.56Q33.02 5.33 33.69 5.33L33.69 5.33L33.69 5.33Q34.09 5.33 34.41 5.41L34.41 5.41L34.41 5.41Q34.73 5.50 34.98 5.64L34.98 5.64L34.98 5.64Q35.24 5.79 35.44 6.00L35.44 6.00L35.44 6.00Q35.64 6.20 35.78 6.45L35.78 6.45L35.88 6.45L35.88 6.45Q35.85 6.06 35.82 5.71L35.82 5.71L35.82 5.71Q35.81 5.57 35.80 5.42L35.80 5.42L35.80 5.42Q35.79 5.27 35.78 5.14L35.78 5.14L35.78 5.14Q35.77 5.00 35.77 4.90L35.77 4.90L35.77 4.90Q35.77 4.80 35.77 4.74L35.77 4.74L35.77 3.96L35.77 3.96Q35.77 3.68 35.67 3.50L35.67 3.50L35.67 3.50Q35.58 3.33 35.43 3.24L35.43 3.24L35.43 3.24Q35.27 3.15 35.07 3.12L35.07 3.12L35.07 3.12Q34.86 3.10 34.63 3.10L34.63 3.10L34.52 3.10L34.52 2.36L37.89 2.36ZM34.32 12.09L34.32 12.09L34.32 12.09Q34.74 12.09 35.02 11.91L35.02 11.91L35.02 11.91Q35.29 11.74 35.46 11.38L35.46 11.38L35.46 11.38Q35.63 11.03 35.70 10.49L35.70 10.49L35.70 10.49Q35.77 9.95 35.77 9.23L35.77 9.23L35.77 9.23Q35.77 8.54 35.70 8.00L35.70 8.00L35.70 8.00Q35.63 7.46 35.46 7.10L35.46 7.10L35.46 7.10Q35.29 6.73 35.02 6.55L35.02 6.55L35.02 6.55Q34.74 6.36 34.32 6.36L34.32 6.36L34.32 6.36Q33.97 6.36 33.73 6.55L33.73 6.55L33.73 6.55Q33.48 6.73 33.32 7.10L33.32 7.10L33.32 7.10Q33.17 7.47 33.10 8.01L33.10 8.01L33.10 8.01Q33.02 8.54 33.02 9.24L33.02 9.24L33.02 9.24Q33.02 10.67 33.32 11.38L33.32 11.38L33.32 11.38Q33.62 12.09 34.32 12.09ZM40.51 3.22L40.51 3.22L40.51 3.22Q40.51 2.95 40.60 2.76L40.60 2.76L40.60 2.76Q40.69 2.57 40.85 2.45L40.85 2.45L40.85 2.45Q41.02 2.33 41.23 2.27L41.23 2.27L41.23 2.27Q41.45 2.21 41.70 2.21L41.70 2.21L41.70 2.21Q41.94 2.21 42.16 2.27L42.16 2.27L42.16 2.27Q42.38 2.33 42.54 2.45L42.54 2.45L42.54 2.45Q42.70 2.57 42.80 2.76L42.80 2.76L42.80 2.76Q42.90 2.95 42.90 3.22L42.90 3.22L42.90 3.22Q42.90 3.48 42.80 3.67L42.80 3.67L42.80 3.67Q42.70 3.86 42.54 3.99L42.54 3.99L42.54 3.99Q42.38 4.11 42.16 4.17L42.16 4.17L42.16 4.17Q41.94 4.23 41.70 4.23L41.70 4.23L41.70 4.23Q41.45 4.23 41.23 4.17L41.23 4.17L41.23 4.17Q41.02 4.11 40.85 3.99L40.85 3.99L40.85 3.99Q40.69 3.86 40.60 3.67L40.60 3.67L40.60 3.67Q40.51 3.48 40.51 3.22ZM39.55 12.25L39.71 12.25L39.71 12.25Q39.87 12.25 40.04 12.22L40.04 12.22L40.04 12.22Q40.22 12.19 40.36 12.09L40.36 12.09L40.36 12.09Q40.51 12.00 40.61 11.82L40.61 11.82L40.61 11.82Q40.71 11.64 40.71 11.34L40.71 11.34L40.71 7.09L40.71 7.09Q40.71 6.81 40.61 6.64L40.61 6.64L40.61 6.64Q40.51 6.47 40.36 6.38L40.36 6.38L40.36 6.38Q40.21 6.29 40.03 6.26L40.03 6.26L40.03 6.26Q39.86 6.23 39.71 6.23L39.71 6.23L39.55 6.23L39.55 5.49L42.83 5.49L42.83 11.34L42.83 11.34Q42.83 11.64 42.93 11.82L42.93 11.82L42.93 11.82Q43.03 12.00 43.18 12.09L43.18 12.09L43.18 12.09Q43.33 12.19 43.50 12.22L43.50 12.22L43.50 12.22Q43.68 12.25 43.83 12.25L43.83 12.25L44.00 12.25L44.00 13.00L39.55 13.00L39.55 12.25ZM48.36 13.13L48.36 13.13L48.36 13.13Q47.59 13.13 46.95 12.93L46.95 12.93L46.95 12.93Q46.31 12.74 45.86 12.28L45.86 12.28L45.86 12.28Q45.40 11.82 45.14 11.08L45.14 11.08L45.14 11.08Q44.89 10.34 44.89 9.27L44.89 9.27L44.89 9.27Q44.89 8.13 45.15 7.38L45.15 7.38L45.15 7.38Q45.42 6.62 45.88 6.16L45.88 6.16L45.88 6.16Q46.34 5.70 46.97 5.51L46.97 5.51L46.97 5.51Q47.60 5.31 48.32 5.31L48.32 5.31L48.32 5.31Q49 5.31 49.52 5.42L49.52 5.42L49.52 5.42Q50.04 5.54 50.39 5.74L50.39 5.74L50.39 5.74Q50.74 5.93 50.92 6.20L50.92 6.20L50.92 6.20Q51.10 6.47 51.10 6.78L51.10 6.78L51.10 6.78Q51.10 7.01 51.02 7.22L51.02 7.22L51.02 7.22Q50.94 7.44 50.74 7.60L50.74 7.60L50.74 7.60Q50.54 7.77 50.19 7.87L50.19 7.87L50.19 7.87Q49.83 7.97 49.29 7.97L49.29 7.97L49.29 7.97Q49.29 7.61 49.24 7.28L49.24 7.28L49.24 7.28Q49.20 6.95 49.10 6.71L49.10 6.71L49.10 6.71Q48.99 6.46 48.82 6.31L48.82 6.31L48.82 6.31Q48.64 6.17 48.38 6.17L48.38 6.17L48.38 6.17Q48.07 6.17 47.83 6.31L47.83 6.31L47.83 6.31Q47.58 6.46 47.41 6.82L47.41 6.82L47.41 6.82Q47.24 7.17 47.14 7.77L47.14 7.77L47.14 7.77Q47.05 8.36 47.05 9.26L47.05 9.26L47.05 9.26Q47.05 10.68 47.44 11.38L47.44 11.38L47.44 11.38Q47.83 12.09 48.71 12.09L48.71 12.09L48.71 12.09Q49.08 12.09 49.39 12.00L49.39 12.00L49.39 12.00Q49.71 11.92 49.97 11.76L49.97 11.76L49.97 11.76Q50.23 11.61 50.43 11.40L50.43 11.40L50.43 11.40Q50.62 11.19 50.74 10.95L50.74 10.95L50.74 10.95Q50.91 11.05 51.00 11.23L51.00 11.23L51.00 11.23Q51.08 11.40 51.08 11.59L51.08 11.59L51.08 11.59Q51.08 11.86 50.92 12.13L50.92 12.13L50.92 12.13Q50.76 12.41 50.43 12.63L50.43 12.63L50.43 12.63Q50.10 12.85 49.59 12.99L49.59 12.99L49.59 12.99Q49.08 13.13 48.36 13.13ZM52.81 3.22L52.81 3.22L52.81 3.22Q52.81 2.95 52.91 2.76L52.91 2.76L52.91 2.76Q53.00 2.57 53.16 2.45L53.16 2.45L53.16 2.45Q53.32 2.33 53.54 2.27L53.54 2.27L53.54 2.27Q53.75 2.21 54.00 2.21L54.00 2.21L54.00 2.21Q54.24 2.21 54.46 2.27L54.46 2.27L54.46 2.27Q54.68 2.33 54.84 2.45L54.84 2.45L54.84 2.45Q55.01 2.57 55.11 2.76L55.11 2.76L55.11 2.76Q55.21 2.95 55.21 3.22L55.21 3.22L55.21 3.22Q55.21 3.48 55.11 3.67L55.11 3.67L55.11 3.67Q55.01 3.86 54.84 3.99L54.84 3.99L54.84 3.99Q54.68 4.11 54.46 4.17L54.46 4.17L54.46 4.17Q54.24 4.23 54.00 4.23L54.00 4.23L54.00 4.23Q53.75 4.23 53.54 4.17L53.54 4.17L53.54 4.17Q53.32 4.11 53.16 3.99L53.16 3.99L53.16 3.99Q53.00 3.86 52.91 3.67L52.91 3.67L52.91 3.67Q52.81 3.48 52.81 3.22ZM51.85 12.25L52.01 12.25L52.01 12.25Q52.17 12.25 52.35 12.22L52.35 12.22L52.35 12.22Q52.52 12.19 52.67 12.09L52.67 12.09L52.67 12.09Q52.81 12.00 52.91 11.82L52.91 11.82L52.91 11.82Q53.01 11.64 53.01 11.34L53.01 11.34L53.01 7.09L53.01 7.09Q53.01 6.81 52.91 6.64L52.91 6.64L52.91 6.64Q52.81 6.47 52.66 6.38L52.66 6.38L52.66 6.38Q52.51 6.29 52.34 6.26L52.34 6.26L52.34 6.26Q52.17 6.23 52.01 6.23L52.01 6.23L51.85 6.23L51.85 5.49L55.14 5.49L55.14 11.34L55.14 11.34Q55.14 11.64 55.24 11.82L55.24 11.82L55.24 11.82Q55.34 12.00 55.48 12.09L55.48 12.09L55.48 12.09Q55.63 12.19 55.81 12.22L55.81 12.22L55.81 12.22Q55.99 12.25 56.14 12.25L56.14 12.25L56.30 12.25L56.30 13.00L51.85 13.00L51.85 12.25ZM60.94 12.00L60.94 12.00L60.94 12.00Q61.21 12.00 61.46 11.97L61.46 11.97L61.46 11.97Q61.71 11.93 61.93 11.87L61.93 11.87L61.93 12.78L61.93 12.78Q61.82 12.84 61.63 12.90L61.63 12.90L61.63 12.90Q61.44 12.96 61.19 13.01L61.19 13.01L61.19 13.01Q60.94 13.06 60.63 13.10L60.63 13.10L60.63 13.10Q60.31 13.13 59.94 13.13L59.94 13.13L59.94 13.13Q59.47 13.13 59.09 13.02L59.09 13.02L59.09 13.02Q58.71 12.91 58.44 12.64L58.44 12.64L58.44 12.64Q58.17 12.38 58.03 11.96L58.03 11.96L58.03 11.96Q57.89 11.54 57.89 10.92L57.89 10.92L57.89 6.45L56.83 6.45L56.83 5.73L56.83 5.73Q57.29 5.73 57.64 5.55L57.64 5.55L57.64 5.55Q58.00 5.37 58.21 5.14L58.21 5.14L58.21 5.14Q58.64 4.69 58.85 3.75L58.85 3.75L60.01 3.75L60.01 5.49L61.80 5.49L61.80 6.45L60.01 6.45L60.01 10.78L60.01 10.78Q60.01 11.42 60.23 11.71L60.23 11.71L60.23 11.71Q60.44 12.00 60.94 12.00ZM67.16 5.49L70.31 5.49L70.31 6.23L70.31 6.23Q70.10 6.23 69.94 6.28L69.94 6.28L69.94 6.28Q69.78 6.33 69.65 6.45L69.65 6.45L69.65 6.45Q69.52 6.57 69.41 6.76L69.41 6.76L69.41 6.76Q69.30 6.96 69.19 7.25L69.19 7.25L69.19 7.25Q68.95 7.95 68.68 8.67L68.68 8.67L68.68 8.67Q68.41 9.40 68.14 10.13L68.14 10.13L68.14 10.13Q67.87 10.86 67.60 11.58L67.60 11.58L67.60 11.58Q67.33 12.30 67.08 13.00L67.08 13.00L67.08 13.00Q66.83 13.67 66.62 14.18L66.62 14.18L66.62 14.18Q66.40 14.70 66.15 15.07L66.15 15.07L66.15 15.07Q65.91 15.45 65.62 15.70L65.62 15.70L65.62 15.70Q65.32 15.94 64.93 16.09L64.93 16.09L64.93 16.09Q64.54 16.24 64.03 16.30L64.03 16.30L64.03 16.30Q63.51 16.36 62.82 16.36L62.82 16.36L62.58 16.36L62.58 15.54L62.58 15.54Q63.31 15.54 63.83 15.37L63.83 15.37L63.83 15.37Q64.34 15.19 64.70 14.86L64.70 14.86L64.70 14.86Q65.05 14.53 65.28 14.08L65.28 14.08L65.28 14.08Q65.51 13.62 65.68 13.06L65.68 13.06L63.16 6.90L63.16 6.90Q63.08 6.71 62.97 6.59L62.97 6.59L62.97 6.59Q62.87 6.47 62.75 6.41L62.75 6.41L62.75 6.41Q62.64 6.35 62.50 6.33L62.50 6.33L62.50 6.33Q62.36 6.32 62.21 6.32L62.21 6.32L62.21 5.49L66.20 5.49L66.20 6.23L66.20 6.23Q65.79 6.23 65.55 6.34L65.55 6.34L65.55 6.34Q65.32 6.45 65.32 6.75L65.32 6.75L65.32 6.75Q65.32 6.87 65.37 7.03L65.37 7.03L65.37 7.03Q65.41 7.19 65.45 7.29L65.45 7.29L65.45 7.29Q65.58 7.59 65.71 7.93L65.71 7.93L65.71 7.93Q65.84 8.28 65.97 8.62L65.97 8.62L65.97 8.62Q66.10 8.97 66.21 9.29L66.21 9.29L66.21 9.29Q66.33 9.61 66.42 9.86L66.42 9.86L66.42 9.86Q66.52 10.12 66.59 10.34L66.59 10.34L66.59 10.34Q66.66 10.55 66.70 10.73L66.70 10.73L66.70 10.73Q66.75 10.90 66.77 11.05L66.77 11.05L66.77 11.05Q66.80 11.20 66.81 11.34L66.81 11.34L66.81 11.34Q66.83 11.20 66.87 11.02L66.87 11.02L66.87 11.02Q66.91 10.85 66.96 10.69L66.96 10.69L66.96 10.69Q67.01 10.53 67.05 10.40L67.05 10.40L67.05 10.40Q67.10 10.27 67.12 10.22L67.12 10.22L68.04 7.48L68.04 7.48Q68.07 7.41 68.10 7.32L68.10 7.32L68.10 7.32Q68.12 7.23 68.14 7.13L68.14 7.13L68.14 7.13Q68.16 7.03 68.17 6.95L68.17 6.95L68.17 6.95Q68.18 6.86 68.18 6.79L68.18 6.79L68.18 6.79Q68.18 6.47 67.92 6.35L67.92 6.35L67.92 6.35Q67.65 6.23 67.16 6.23L67.16 6.23L67.16 5.49Z"></path></g><!----><g data-v-423bf9ae="" id="25a3f1cf-5f2a-4982-a4ba-7cd98d6397bb" transform="matrix(1.9933422778872378,0,0,1.9933422778872378,-36.102325937321936,-504.8745332231862)" stroke="none" fill="white"><path d="M48.937 253.606c-17.1.892-28.602 14.79-30.537 31.92l1.484.215c1.746-15.484 13.844-27.791 29.294-28.597 15.099-.786 28.145 10.225 32.325 24.884l.935-.084c-4.41-16.551-16.57-29.219-33.501-28.338z"></path><path d="M49.542 266.061c-12.408.649-20.754 10.733-22.158 23.167l1.077.153c1.267-11.233 10.044-20.165 21.258-20.751 10.956-.569 20.424 7.421 23.457 18.058l.679-.062c-3.2-12.01-12.025-21.203-24.313-20.565z"></path><path d="M50.862 278.457c-7.598.398-12.709 6.571-13.569 14.184l.66.096c.775-6.881 6.151-12.348 13.016-12.706 6.707-.349 12.505 4.543 14.361 11.057l.416-.038c-1.957-7.356-7.359-12.983-14.884-12.593z"></path><circle cx="50.858" cy="294.716" r="3.997"></circle></g><!----></svg>