<svg data-v-fde0c5aa="" xmlns="http://www.w3.org/2000/svg" viewBox="0 0 300 300" class="iconLeft"><!----><defs data-v-fde0c5aa=""><!----></defs><rect data-v-fde0c5aa="" fill="#DFE9EC" x="0" y="0" width="300px" height="300px" class="logo-background-square"></rect><defs data-v-fde0c5aa=""><!----></defs><g data-v-fde0c5aa="" id="9bc7f386-fd11-441d-86a5-0992dc0dae20" fill="#12292A" transform="matrix(3.021750903245771,0,0,3.021750903245771,96.52328578832065,124.48131310337155)"><path d="M3.16 10.99L3.16 10.99Q3.16 11.84 3.30 12.36L3.30 12.36L3.30 12.36Q3.44 12.87 3.79 13.33L3.79 13.33L3.98 13.58L3.79 13.80L0.73 13.80L0.56 13.33L0.88 13.24L0.88 13.24Q1.41 13.10 1.60 12.84L1.60 12.84L1.60 12.84Q1.78 12.57 1.78 11.94L1.78 11.94L1.78 5.03L1.78 5.03Q1.78 4.84 1.71 4.77L1.71 4.77L1.71 4.77Q1.64 4.69 1.47 4.69L1.47 4.69L0.66 4.69L0.49 4.17L0.49 4.17Q1.09 3.93 2.08 3.74L2.08 3.74L2.08 3.74Q3.07 3.56 3.98 3.56L3.98 3.56L3.98 3.56Q6.05 3.56 7.06 4.49L7.06 4.49L7.06 4.49Q8.06 5.42 8.06 6.89L8.06 6.89L8.06 6.89Q8.06 7.80 7.70 8.53L7.70 8.53L7.70 8.53Q7.34 9.27 6.58 9.71L6.58 9.71L6.58 9.71Q5.82 10.15 4.70 10.15L4.70 10.15L4.70 10.15Q4.19 10.15 3.83 10.02L3.83 10.02L3.83 10.02Q3.47 9.90 3.47 9.66L3.47 9.66L3.47 9.66Q3.47 9.52 3.53 9.42L3.53 9.42L3.53 9.42Q3.58 9.32 3.70 9.32L3.70 9.32L3.70 9.32Q3.75 9.32 3.93 9.37L3.93 9.37L3.93 9.37Q4.10 9.42 4.38 9.42L4.38 9.42L4.38 9.42Q5.43 9.42 6.02 8.75L6.02 8.75L6.02 8.75Q6.61 8.08 6.61 6.93L6.61 6.93L6.61 6.93Q6.61 5.80 5.99 5.07L5.99 5.07L5.99 5.07Q5.36 4.34 4.23 4.34L4.23 4.34L4.23 4.34Q3.16 4.34 3.16 4.98L3.16 4.98L3.16 10.99ZM9.86 4.37L9.86 4.37Q9.86 4.20 9.79 4.13L9.79 4.13L9.79 4.13Q9.73 4.06 9.58 4.06L9.58 4.06L8.96 4.06L8.83 3.70L8.83 3.70Q9.24 3.33 9.76 3.09L9.76 3.09L9.76 3.09Q10.29 2.86 10.68 2.86L10.68 2.86L10.68 2.86Q10.88 2.86 11.00 2.98L11.00 2.98L11.00 2.98Q11.13 3.11 11.13 3.30L11.13 3.30L11.13 8.75L11.13 8.75Q11.49 7.84 12.22 7.25L12.22 7.25L12.22 7.25Q12.95 6.66 13.75 6.66L13.75 6.66L13.75 6.66Q14.77 6.66 15.20 7.27L15.20 7.27L15.20 7.27Q15.62 7.87 15.62 9.21L15.62 9.21L15.62 12.60L15.62 12.60Q15.62 13.08 16.04 13.08L16.04 13.08L16.04 13.08Q16.39 13.08 16.74 12.78L16.74 12.78L17.01 13.15L17.01 13.15Q16.65 13.55 16.23 13.79L16.23 13.79L16.23 13.79Q15.81 14.03 15.44 14.03L15.44 14.03L15.44 14.03Q14.87 14.03 14.62 13.68L14.62 13.68L14.62 13.68Q14.36 13.33 14.36 12.54L14.36 12.54L14.36 9.21L14.36 9.21Q14.36 8.47 14.09 8.11L14.09 8.11L14.09 8.11Q13.82 7.76 13.16 7.76L13.16 7.76L13.16 7.76Q12.56 7.76 12.10 8.23L12.10 8.23L12.10 8.23Q11.65 8.71 11.39 9.58L11.39 9.58L11.39 9.58Q11.13 10.44 11.13 11.56L11.13 11.56L11.13 11.56Q11.13 12.22 11.23 12.61L11.23 12.61L11.23 12.61Q11.33 13.01 11.58 13.37L11.58 13.37L11.75 13.59L11.58 13.80L9.13 13.80L8.97 13.37L9.27 13.30L9.27 13.30Q9.62 13.22 9.74 13.00L9.74 13.00L9.74 13.00Q9.86 12.78 9.86 12.25L9.86 12.25L9.86 4.37ZM18.58 4.59L18.58 4.59Q18.58 4.33 18.88 4.00L18.88 4.00L18.88 4.00Q19.18 3.67 19.43 3.67L19.43 3.67L19.43 3.67Q19.70 3.67 20.01 3.99L20.01 3.99L20.01 3.99Q20.31 4.31 20.31 4.59L20.31 4.59L20.31 4.59Q20.31 4.86 20.01 5.18L20.01 5.18L20.01 5.18Q19.70 5.50 19.43 5.50L19.43 5.50L19.43 5.50Q19.19 5.50 18.89 5.18L18.89 5.18L18.89 5.18Q18.58 4.86 18.58 4.59L18.58 4.59ZM20.06 12.57L20.06 12.57Q20.06 13.05 20.48 13.05L20.48 13.05L20.48 13.05Q20.83 13.05 21.18 12.75L21.18 12.75L21.45 13.12L21.45 13.12Q21.08 13.52 20.66 13.76L20.66 13.76L20.66 13.76Q20.24 14 19.88 14L19.88 14L19.88 14Q19.31 14 19.05 13.65L19.05 13.65L19.05 13.65Q18.80 13.30 18.80 12.52L18.80 12.52L18.80 8.18L18.80 8.18Q18.80 8.01 18.74 7.94L18.74 7.94L18.74 7.94Q18.68 7.87 18.52 7.87L18.52 7.87L17.91 7.87L17.78 7.50L17.78 7.50Q18.19 7.14 18.70 6.90L18.70 6.90L18.70 6.90Q19.22 6.66 19.63 6.66L19.63 6.66L19.63 6.66Q19.82 6.66 19.95 6.79L19.95 6.79L19.95 6.79Q20.08 6.92 20.08 7.11L20.08 7.11L20.06 12.57ZM24.51 11.56L24.51 11.56Q24.51 12.22 24.61 12.61L24.61 12.61L24.61 12.61Q24.71 13.01 24.96 13.37L24.96 13.37L25.13 13.59L24.96 13.80L22.51 13.80L22.36 13.37L22.65 13.30L22.65 13.30Q23.00 13.22 23.12 13.00L23.12 13.00L23.12 13.00Q23.24 12.78 23.24 12.25L23.24 12.25L23.24 8.32L23.24 8.32Q23.24 8.15 23.18 8.08L23.18 8.08L23.18 8.08Q23.11 8.01 22.96 8.01L22.96 8.01L22.34 8.01L22.22 7.64L22.22 7.64Q22.62 7.28 23.15 7.04L23.15 7.04L23.15 7.04Q23.67 6.80 24.07 6.80L24.07 6.80L24.07 6.80Q24.26 6.80 24.39 6.93L24.39 6.93L24.39 6.93Q24.51 7.06 24.51 7.25L24.51 7.25L24.51 8.75L24.51 8.75Q24.88 7.84 25.61 7.25L25.61 7.25L25.61 7.25Q26.33 6.66 27.13 6.66L27.13 6.66L27.13 6.66Q28.11 6.66 28.56 7.27L28.56 7.27L28.56 7.27Q29.01 7.87 29.01 9.18L29.01 9.18L29.01 12.57L29.01 12.57Q29.01 13.05 29.43 13.05L29.43 13.05L29.43 13.05Q29.75 13.05 30.13 12.75L30.13 12.75L30.39 13.12L30.39 13.12Q30.03 13.52 29.61 13.76L29.61 13.76L29.61 13.76Q29.19 14 28.83 14L28.83 14L28.83 14Q28.25 14 28 13.65L28 13.65L28 13.65Q27.75 13.30 27.75 12.52L27.75 12.52L27.75 9.18L27.75 9.18Q27.75 7.76 26.54 7.76L26.54 7.76L26.54 7.76Q25.94 7.76 25.49 8.23L25.49 8.23L25.49 8.23Q25.03 8.71 24.77 9.58L24.77 9.58L24.77 9.58Q24.51 10.44 24.51 11.56L24.51 11.56ZM38.16 5.80L38.16 5.80Q38.02 5.28 37.86 5.02L37.86 5.02L37.86 5.02Q37.70 4.76 37.42 4.65L37.42 4.65L37.42 4.65Q37.14 4.55 36.64 4.55L36.64 4.55L36.01 4.55L36.01 4.55Q35.71 4.55 35.62 4.75L35.62 4.75L35.62 4.75Q35.53 4.96 35.53 5.61L35.53 5.61L35.53 11.94L35.53 11.94Q35.53 12.59 35.71 12.84L35.71 12.84L35.71 12.84Q35.90 13.09 36.43 13.24L36.43 13.24L36.75 13.33L36.58 13.80L33.52 13.80L33.33 13.58L33.52 13.33L33.52 13.33Q33.87 12.87 34.01 12.35L34.01 12.35L34.01 12.35Q34.15 11.83 34.15 10.99L34.15 10.99L34.15 5.61L34.15 5.61Q34.15 4.96 34.05 4.75L34.05 4.75L34.05 4.75Q33.96 4.55 33.67 4.55L33.67 4.55L33.04 4.55L33.04 4.55Q32.54 4.55 32.26 4.65L32.26 4.65L32.26 4.65Q31.98 4.76 31.81 5.02L31.81 5.02L31.81 5.02Q31.65 5.28 31.51 5.80L31.51 5.80L31.43 6.12L30.95 5.95L30.95 3.46L31.18 3.28L31.43 3.46L31.43 3.46Q31.82 3.75 33.03 3.75L33.03 3.75L36.65 3.75L36.65 3.75Q37.86 3.75 38.25 3.46L38.25 3.46L38.50 3.28L38.72 3.46L38.72 5.95L38.25 6.12L38.16 5.80ZM44.65 12.75L44.65 12.75Q44.13 13.36 43.41 13.68L43.41 13.68L43.41 13.68Q42.70 14 41.87 14L41.87 14L41.87 14Q40.91 14 40.18 13.55L40.18 13.55L40.18 13.55Q39.45 13.10 39.05 12.29L39.05 12.29L39.05 12.29Q38.65 11.48 38.65 10.42L38.65 10.42L38.65 10.42Q38.65 9.30 39.10 8.45L39.10 8.45L39.10 8.45Q39.55 7.60 40.37 7.13L40.37 7.13L40.37 7.13Q41.19 6.66 42.28 6.66L42.28 6.66L42.28 6.66Q43.05 6.66 43.59 6.95L43.59 6.95L43.59 6.95Q44.13 7.24 44.39 7.71L44.39 7.71L44.39 7.71Q44.66 8.18 44.66 8.72L44.66 8.72L44.66 8.72Q44.66 9.31 44.34 9.86L44.34 9.86L44.34 9.86Q44.03 10.40 43.43 10.75L43.43 10.75L43.43 10.75Q42.83 11.09 41.99 11.09L41.99 11.09L41.99 11.09Q41.54 11.09 40.99 10.92L40.99 10.92L40.99 10.92Q40.45 10.75 40.45 10.43L40.45 10.43L40.45 10.43Q40.45 10.32 40.51 10.22L40.51 10.22L40.51 10.22Q40.57 10.12 40.66 10.12L40.66 10.12L40.66 10.12Q40.70 10.12 40.94 10.21L40.94 10.21L40.94 10.21Q41.17 10.30 41.55 10.30L41.55 10.30L41.55 10.30Q42.39 10.30 42.86 9.83L42.86 9.83L42.86 9.83Q43.33 9.35 43.33 8.71L43.33 8.71L43.33 8.71Q43.33 8.16 42.98 7.76L42.98 7.76L42.98 7.76Q42.63 7.36 42 7.36L42 7.36L42 7.36Q41.10 7.36 40.60 8.16L40.60 8.16L40.60 8.16Q40.10 8.95 40.10 10.42L40.10 10.42L40.10 10.42Q40.10 11.66 40.63 12.37L40.63 12.37L40.63 12.37Q41.16 13.08 42.17 13.08L42.17 13.08L42.17 13.08Q43.40 13.08 44.21 12.28L44.21 12.28L44.21 12.28Q44.27 12.22 44.34 12.22L44.34 12.22L44.34 12.22Q44.45 12.22 44.58 12.36L44.58 12.36L44.58 12.36Q44.70 12.49 44.70 12.63L44.70 12.63L44.70 12.63Q44.70 12.70 44.65 12.75L44.65 12.75ZM46.94 4.37L46.94 4.37Q46.94 4.20 46.88 4.13L46.88 4.13L46.88 4.13Q46.82 4.06 46.66 4.06L46.66 4.06L46.05 4.06L45.92 3.70L45.92 3.70Q46.33 3.33 46.85 3.09L46.85 3.09L46.85 3.09Q47.38 2.86 47.77 2.86L47.77 2.86L47.77 2.86Q47.96 2.86 48.09 2.98L48.09 2.98L48.09 2.98Q48.22 3.11 48.22 3.30L48.22 3.30L48.22 8.75L48.22 8.75Q48.58 7.84 49.31 7.25L49.31 7.25L49.31 7.25Q50.04 6.66 50.83 6.66L50.83 6.66L50.83 6.66Q51.86 6.66 52.28 7.27L52.28 7.27L52.28 7.27Q52.71 7.87 52.71 9.21L52.71 9.21L52.71 12.60L52.71 12.60Q52.71 13.08 53.13 13.08L53.13 13.08L53.13 13.08Q53.48 13.08 53.83 12.78L53.83 12.78L54.10 13.15L54.10 13.15Q53.73 13.55 53.31 13.79L53.31 13.79L53.31 13.79Q52.89 14.03 52.53 14.03L52.53 14.03L52.53 14.03Q51.95 14.03 51.70 13.68L51.70 13.68L51.70 13.68Q51.45 13.33 51.45 12.54L51.45 12.54L51.45 9.21L51.45 9.21Q51.45 8.47 51.18 8.11L51.18 8.11L51.18 8.11Q50.90 7.76 50.25 7.76L50.25 7.76L50.25 7.76Q49.64 7.76 49.19 8.23L49.19 8.23L49.19 8.23Q48.73 8.71 48.48 9.58L48.48 9.58L48.48 9.58Q48.22 10.44 48.22 11.56L48.22 11.56L48.22 11.56Q48.22 12.22 48.31 12.61L48.31 12.61L48.31 12.61Q48.41 13.01 48.66 13.37L48.66 13.37L48.83 13.59L48.66 13.80L46.21 13.80L46.06 13.37L46.35 13.30L46.35 13.30Q46.70 13.22 46.82 13.00L46.82 13.00L46.82 13.00Q46.94 12.78 46.94 12.25L46.94 12.25L46.94 4.37Z"></path></g><defs data-v-fde0c5aa=""><linearGradient data-v-fde0c5aa="" gradientTransform="rotate(25)" id="4f5301c0-45f1-426f-a643-96e7fb596d33" x1="0%" y1="0%" x2="100%" y2="0%"><stop data-v-fde0c5aa="" offset="0%" stop-color="#122663" stop-opacity="1"></stop><stop data-v-fde0c5aa="" offset="100%" stop-color="#5DD7AD" stop-opacity="1"></stop></linearGradient></defs><g data-v-fde0c5aa="" id="219f2b93-89de-4dd5-8f5f-daad4d9cd8d2" stroke="none" fill="url(#4f5301c0-45f1-426f-a643-96e7fb596d33)" transform="matrix(1.4063732424915234,0,0,1.4063732424915234,40,124.68528163515258)"><path d="M7 5.5v3V7H4V4h3v1.5zm18 0v3V7h3V4h-3v1.5zm0 0V4c1.653 0 3 1.343 3 3h-3V5.5zm-18 0V4C5.343 4 4 5.347 4 7h3V5.5zM4 0v4h24V0H4zm6 32v4h12v-4H10zM28 8h4V0h-4v8zM0 0v8h4V0H0zm13 4v28h6V4h-6z"></path></g><!----></svg>